<?xml version="1.0" encoding="utf-8" standalone="no"?>
<!DOCTYPE svg PUBLIC "-//W3C//DTD SVG 1.1//EN"
  "http://www.w3.org/Graphics/SVG/1.1/DTD/svg11.dtd">
<svg xmlns:xlink="http://www.w3.org/1999/xlink" width="648pt" height="360pt" viewBox="0 0 648 360" xmlns="http://www.w3.org/2000/svg" version="1.1">
 <metadata>
  <rdf:RDF xmlns:dc="http://purl.org/dc/elements/1.1/" xmlns:cc="http://creativecommons.org/ns#" xmlns:rdf="http://www.w3.org/1999/02/22-rdf-syntax-ns#">
   <cc:Work>
    <dc:type rdf:resource="http://purl.org/dc/dcmitype/StillImage"/>
    <dc:date>2023-11-30T22:13:14.770901</dc:date>
    <dc:format>image/svg+xml</dc:format>
    <dc:creator>
     <cc:Agent>
      <dc:title>Matplotlib v3.7.4, https://matplotlib.org/</dc:title>
     </cc:Agent>
    </dc:creator>
   </cc:Work>
  </rdf:RDF>
 </metadata>
 <defs>
  <style type="text/css">*{stroke-linejoin: round; stroke-linecap: butt}</style>
 </defs>
 <g id="figure_1">
  <g id="patch_1">
   <path d="M 0 360 
L 648 360 
L 648 0 
L 0 0 
L 0 360 
z
" style="fill: none"/>
  </g>
  <g id="axes_1">
   <g id="patch_2">
    <path d="M 81 315 
L 583.2 315 
L 583.2 43.2 
L 81 43.2 
z
" style="fill: #eaeaf2"/>
   </g>
   <g id="matplotlib.axis_1">
    <g id="xtick_1">
     <g id="line2d_1">
      <path d="M 164.7 315 
L 164.7 43.2 
" clip-path="url(#p327fda8cf0)" style="fill: none; stroke: #ffffff; stroke-linecap: round"/>
     </g>
     <g id="text_1">
      <!-- Plaintext TCP -->
      <g style="fill: #262626" transform="translate(128.675 332.858281) scale(0.11 -0.11)">
       <defs>
        <path id="DejaVuSans-50" d="M 1259 4147 
L 1259 2394 
L 2053 2394 
Q 2494 2394 2734 2622 
Q 2975 2850 2975 3272 
Q 2975 3691 2734 3919 
Q 2494 4147 2053 4147 
L 1259 4147 
z
M 628 4666 
L 2053 4666 
Q 2838 4666 3239 4311 
Q 3641 3956 3641 3272 
Q 3641 2581 3239 2228 
Q 2838 1875 2053 1875 
L 1259 1875 
L 1259 0 
L 628 0 
L 628 4666 
z
" transform="scale(0.015625)"/>
        <path id="DejaVuSans-6c" d="M 603 4863 
L 1178 4863 
L 1178 0 
L 603 0 
L 603 4863 
z
" transform="scale(0.015625)"/>
        <path id="DejaVuSans-61" d="M 2194 1759 
Q 1497 1759 1228 1600 
Q 959 1441 959 1056 
Q 959 750 1161 570 
Q 1363 391 1709 391 
Q 2188 391 2477 730 
Q 2766 1069 2766 1631 
L 2766 1759 
L 2194 1759 
z
M 3341 1997 
L 3341 0 
L 2766 0 
L 2766 531 
Q 2569 213 2275 61 
Q 1981 -91 1556 -91 
Q 1019 -91 701 211 
Q 384 513 384 1019 
Q 384 1609 779 1909 
Q 1175 2209 1959 2209 
L 2766 2209 
L 2766 2266 
Q 2766 2663 2505 2880 
Q 2244 3097 1772 3097 
Q 1472 3097 1187 3025 
Q 903 2953 641 2809 
L 641 3341 
Q 956 3463 1253 3523 
Q 1550 3584 1831 3584 
Q 2591 3584 2966 3190 
Q 3341 2797 3341 1997 
z
" transform="scale(0.015625)"/>
        <path id="DejaVuSans-69" d="M 603 3500 
L 1178 3500 
L 1178 0 
L 603 0 
L 603 3500 
z
M 603 4863 
L 1178 4863 
L 1178 4134 
L 603 4134 
L 603 4863 
z
" transform="scale(0.015625)"/>
        <path id="DejaVuSans-6e" d="M 3513 2113 
L 3513 0 
L 2938 0 
L 2938 2094 
Q 2938 2591 2744 2837 
Q 2550 3084 2163 3084 
Q 1697 3084 1428 2787 
Q 1159 2491 1159 1978 
L 1159 0 
L 581 0 
L 581 3500 
L 1159 3500 
L 1159 2956 
Q 1366 3272 1645 3428 
Q 1925 3584 2291 3584 
Q 2894 3584 3203 3211 
Q 3513 2838 3513 2113 
z
" transform="scale(0.015625)"/>
        <path id="DejaVuSans-74" d="M 1172 4494 
L 1172 3500 
L 2356 3500 
L 2356 3053 
L 1172 3053 
L 1172 1153 
Q 1172 725 1289 603 
Q 1406 481 1766 481 
L 2356 481 
L 2356 0 
L 1766 0 
Q 1100 0 847 248 
Q 594 497 594 1153 
L 594 3053 
L 172 3053 
L 172 3500 
L 594 3500 
L 594 4494 
L 1172 4494 
z
" transform="scale(0.015625)"/>
        <path id="DejaVuSans-65" d="M 3597 1894 
L 3597 1613 
L 953 1613 
Q 991 1019 1311 708 
Q 1631 397 2203 397 
Q 2534 397 2845 478 
Q 3156 559 3463 722 
L 3463 178 
Q 3153 47 2828 -22 
Q 2503 -91 2169 -91 
Q 1331 -91 842 396 
Q 353 884 353 1716 
Q 353 2575 817 3079 
Q 1281 3584 2069 3584 
Q 2775 3584 3186 3129 
Q 3597 2675 3597 1894 
z
M 3022 2063 
Q 3016 2534 2758 2815 
Q 2500 3097 2075 3097 
Q 1594 3097 1305 2825 
Q 1016 2553 972 2059 
L 3022 2063 
z
" transform="scale(0.015625)"/>
        <path id="DejaVuSans-78" d="M 3513 3500 
L 2247 1797 
L 3578 0 
L 2900 0 
L 1881 1375 
L 863 0 
L 184 0 
L 1544 1831 
L 300 3500 
L 978 3500 
L 1906 2253 
L 2834 3500 
L 3513 3500 
z
" transform="scale(0.015625)"/>
        <path id="DejaVuSans-20" transform="scale(0.015625)"/>
        <path id="DejaVuSans-54" d="M -19 4666 
L 3928 4666 
L 3928 4134 
L 2272 4134 
L 2272 0 
L 1638 0 
L 1638 4134 
L -19 4134 
L -19 4666 
z
" transform="scale(0.015625)"/>
        <path id="DejaVuSans-43" d="M 4122 4306 
L 4122 3641 
Q 3803 3938 3442 4084 
Q 3081 4231 2675 4231 
Q 1875 4231 1450 3742 
Q 1025 3253 1025 2328 
Q 1025 1406 1450 917 
Q 1875 428 2675 428 
Q 3081 428 3442 575 
Q 3803 722 4122 1019 
L 4122 359 
Q 3791 134 3420 21 
Q 3050 -91 2638 -91 
Q 1578 -91 968 557 
Q 359 1206 359 2328 
Q 359 3453 968 4101 
Q 1578 4750 2638 4750 
Q 3056 4750 3426 4639 
Q 3797 4528 4122 4306 
z
" transform="scale(0.015625)"/>
       </defs>
       <use xlink:href="#DejaVuSans-50"/>
       <use xlink:href="#DejaVuSans-6c" x="60.302734"/>
       <use xlink:href="#DejaVuSans-61" x="88.085938"/>
       <use xlink:href="#DejaVuSans-69" x="149.365234"/>
       <use xlink:href="#DejaVuSans-6e" x="177.148438"/>
       <use xlink:href="#DejaVuSans-74" x="240.527344"/>
       <use xlink:href="#DejaVuSans-65" x="279.736328"/>
       <use xlink:href="#DejaVuSans-78" x="339.509766"/>
       <use xlink:href="#DejaVuSans-74" x="398.689453"/>
       <use xlink:href="#DejaVuSans-20" x="437.898438"/>
       <use xlink:href="#DejaVuSans-54" x="469.685547"/>
       <use xlink:href="#DejaVuSans-43" x="524.894531"/>
       <use xlink:href="#DejaVuSans-50" x="594.71875"/>
      </g>
     </g>
    </g>
    <g id="xtick_2">
     <g id="line2d_2">
      <path d="M 332.1 315 
L 332.1 43.2 
" clip-path="url(#p327fda8cf0)" style="fill: none; stroke: #ffffff; stroke-linecap: round"/>
     </g>
     <g id="text_2">
      <!-- TLS over TCP -->
      <g style="fill: #262626" transform="translate(296.229688 332.858281) scale(0.11 -0.11)">
       <defs>
        <path id="DejaVuSans-4c" d="M 628 4666 
L 1259 4666 
L 1259 531 
L 3531 531 
L 3531 0 
L 628 0 
L 628 4666 
z
" transform="scale(0.015625)"/>
        <path id="DejaVuSans-53" d="M 3425 4513 
L 3425 3897 
Q 3066 4069 2747 4153 
Q 2428 4238 2131 4238 
Q 1616 4238 1336 4038 
Q 1056 3838 1056 3469 
Q 1056 3159 1242 3001 
Q 1428 2844 1947 2747 
L 2328 2669 
Q 3034 2534 3370 2195 
Q 3706 1856 3706 1288 
Q 3706 609 3251 259 
Q 2797 -91 1919 -91 
Q 1588 -91 1214 -16 
Q 841 59 441 206 
L 441 856 
Q 825 641 1194 531 
Q 1563 422 1919 422 
Q 2459 422 2753 634 
Q 3047 847 3047 1241 
Q 3047 1584 2836 1778 
Q 2625 1972 2144 2069 
L 1759 2144 
Q 1053 2284 737 2584 
Q 422 2884 422 3419 
Q 422 4038 858 4394 
Q 1294 4750 2059 4750 
Q 2388 4750 2728 4690 
Q 3069 4631 3425 4513 
z
" transform="scale(0.015625)"/>
        <path id="DejaVuSans-6f" d="M 1959 3097 
Q 1497 3097 1228 2736 
Q 959 2375 959 1747 
Q 959 1119 1226 758 
Q 1494 397 1959 397 
Q 2419 397 2687 759 
Q 2956 1122 2956 1747 
Q 2956 2369 2687 2733 
Q 2419 3097 1959 3097 
z
M 1959 3584 
Q 2709 3584 3137 3096 
Q 3566 2609 3566 1747 
Q 3566 888 3137 398 
Q 2709 -91 1959 -91 
Q 1206 -91 779 398 
Q 353 888 353 1747 
Q 353 2609 779 3096 
Q 1206 3584 1959 3584 
z
" transform="scale(0.015625)"/>
        <path id="DejaVuSans-76" d="M 191 3500 
L 800 3500 
L 1894 563 
L 2988 3500 
L 3597 3500 
L 2284 0 
L 1503 0 
L 191 3500 
z
" transform="scale(0.015625)"/>
        <path id="DejaVuSans-72" d="M 2631 2963 
Q 2534 3019 2420 3045 
Q 2306 3072 2169 3072 
Q 1681 3072 1420 2755 
Q 1159 2438 1159 1844 
L 1159 0 
L 581 0 
L 581 3500 
L 1159 3500 
L 1159 2956 
Q 1341 3275 1631 3429 
Q 1922 3584 2338 3584 
Q 2397 3584 2469 3576 
Q 2541 3569 2628 3553 
L 2631 2963 
z
" transform="scale(0.015625)"/>
       </defs>
       <use xlink:href="#DejaVuSans-54"/>
       <use xlink:href="#DejaVuSans-4c" x="61.083984"/>
       <use xlink:href="#DejaVuSans-53" x="116.796875"/>
       <use xlink:href="#DejaVuSans-20" x="180.273438"/>
       <use xlink:href="#DejaVuSans-6f" x="212.060547"/>
       <use xlink:href="#DejaVuSans-76" x="273.242188"/>
       <use xlink:href="#DejaVuSans-65" x="332.421875"/>
       <use xlink:href="#DejaVuSans-72" x="393.945312"/>
       <use xlink:href="#DejaVuSans-20" x="435.058594"/>
       <use xlink:href="#DejaVuSans-54" x="466.845703"/>
       <use xlink:href="#DejaVuSans-43" x="522.054688"/>
       <use xlink:href="#DejaVuSans-50" x="591.878906"/>
      </g>
     </g>
    </g>
    <g id="xtick_3">
     <g id="line2d_3">
      <path d="M 499.5 315 
L 499.5 43.2 
" clip-path="url(#p327fda8cf0)" style="fill: none; stroke: #ffffff; stroke-linecap: round"/>
     </g>
     <g id="text_3">
      <!-- UNIX socket -->
      <g style="fill: #262626" transform="translate(466.441562 332.858281) scale(0.11 -0.11)">
       <defs>
        <path id="DejaVuSans-55" d="M 556 4666 
L 1191 4666 
L 1191 1831 
Q 1191 1081 1462 751 
Q 1734 422 2344 422 
Q 2950 422 3222 751 
Q 3494 1081 3494 1831 
L 3494 4666 
L 4128 4666 
L 4128 1753 
Q 4128 841 3676 375 
Q 3225 -91 2344 -91 
Q 1459 -91 1007 375 
Q 556 841 556 1753 
L 556 4666 
z
" transform="scale(0.015625)"/>
        <path id="DejaVuSans-4e" d="M 628 4666 
L 1478 4666 
L 3547 763 
L 3547 4666 
L 4159 4666 
L 4159 0 
L 3309 0 
L 1241 3903 
L 1241 0 
L 628 0 
L 628 4666 
z
" transform="scale(0.015625)"/>
        <path id="DejaVuSans-49" d="M 628 4666 
L 1259 4666 
L 1259 0 
L 628 0 
L 628 4666 
z
" transform="scale(0.015625)"/>
        <path id="DejaVuSans-58" d="M 403 4666 
L 1081 4666 
L 2241 2931 
L 3406 4666 
L 4084 4666 
L 2584 2425 
L 4184 0 
L 3506 0 
L 2194 1984 
L 872 0 
L 191 0 
L 1856 2491 
L 403 4666 
z
" transform="scale(0.015625)"/>
        <path id="DejaVuSans-73" d="M 2834 3397 
L 2834 2853 
Q 2591 2978 2328 3040 
Q 2066 3103 1784 3103 
Q 1356 3103 1142 2972 
Q 928 2841 928 2578 
Q 928 2378 1081 2264 
Q 1234 2150 1697 2047 
L 1894 2003 
Q 2506 1872 2764 1633 
Q 3022 1394 3022 966 
Q 3022 478 2636 193 
Q 2250 -91 1575 -91 
Q 1294 -91 989 -36 
Q 684 19 347 128 
L 347 722 
Q 666 556 975 473 
Q 1284 391 1588 391 
Q 1994 391 2212 530 
Q 2431 669 2431 922 
Q 2431 1156 2273 1281 
Q 2116 1406 1581 1522 
L 1381 1569 
Q 847 1681 609 1914 
Q 372 2147 372 2553 
Q 372 3047 722 3315 
Q 1072 3584 1716 3584 
Q 2034 3584 2315 3537 
Q 2597 3491 2834 3397 
z
" transform="scale(0.015625)"/>
        <path id="DejaVuSans-63" d="M 3122 3366 
L 3122 2828 
Q 2878 2963 2633 3030 
Q 2388 3097 2138 3097 
Q 1578 3097 1268 2742 
Q 959 2388 959 1747 
Q 959 1106 1268 751 
Q 1578 397 2138 397 
Q 2388 397 2633 464 
Q 2878 531 3122 666 
L 3122 134 
Q 2881 22 2623 -34 
Q 2366 -91 2075 -91 
Q 1284 -91 818 406 
Q 353 903 353 1747 
Q 353 2603 823 3093 
Q 1294 3584 2113 3584 
Q 2378 3584 2631 3529 
Q 2884 3475 3122 3366 
z
" transform="scale(0.015625)"/>
        <path id="DejaVuSans-6b" d="M 581 4863 
L 1159 4863 
L 1159 1991 
L 2875 3500 
L 3609 3500 
L 1753 1863 
L 3688 0 
L 2938 0 
L 1159 1709 
L 1159 0 
L 581 0 
L 581 4863 
z
" transform="scale(0.015625)"/>
       </defs>
       <use xlink:href="#DejaVuSans-55"/>
       <use xlink:href="#DejaVuSans-4e" x="73.193359"/>
       <use xlink:href="#DejaVuSans-49" x="147.998047"/>
       <use xlink:href="#DejaVuSans-58" x="177.490234"/>
       <use xlink:href="#DejaVuSans-20" x="245.996094"/>
       <use xlink:href="#DejaVuSans-73" x="277.783203"/>
       <use xlink:href="#DejaVuSans-6f" x="329.882812"/>
       <use xlink:href="#DejaVuSans-63" x="391.064453"/>
       <use xlink:href="#DejaVuSans-6b" x="446.044922"/>
       <use xlink:href="#DejaVuSans-65" x="500.330078"/>
       <use xlink:href="#DejaVuSans-74" x="561.853516"/>
      </g>
     </g>
    </g>
   </g>
   <g id="matplotlib.axis_2">
    <g id="ytick_1">
     <g id="line2d_4">
      <path d="M 81 315 
L 583.2 315 
" clip-path="url(#p327fda8cf0)" style="fill: none; stroke: #ffffff; stroke-linecap: round"/>
     </g>
     <g id="text_4">
      <!-- 0 -->
      <g style="fill: #262626" transform="translate(64.50125 319.179141) scale(0.11 -0.11)">
       <defs>
        <path id="DejaVuSans-30" d="M 2034 4250 
Q 1547 4250 1301 3770 
Q 1056 3291 1056 2328 
Q 1056 1369 1301 889 
Q 1547 409 2034 409 
Q 2525 409 2770 889 
Q 3016 1369 3016 2328 
Q 3016 3291 2770 3770 
Q 2525 4250 2034 4250 
z
M 2034 4750 
Q 2819 4750 3233 4129 
Q 3647 3509 3647 2328 
Q 3647 1150 3233 529 
Q 2819 -91 2034 -91 
Q 1250 -91 836 529 
Q 422 1150 422 2328 
Q 422 3509 836 4129 
Q 1250 4750 2034 4750 
z
" transform="scale(0.015625)"/>
       </defs>
       <use xlink:href="#DejaVuSans-30"/>
      </g>
     </g>
    </g>
    <g id="ytick_2">
     <g id="line2d_5">
      <path d="M 81 280.106057 
L 583.2 280.106057 
" clip-path="url(#p327fda8cf0)" style="fill: none; stroke: #ffffff; stroke-linecap: round"/>
     </g>
     <g id="text_5">
      <!-- 2500 -->
      <g style="fill: #262626" transform="translate(43.505 284.285198) scale(0.11 -0.11)">
       <defs>
        <path id="DejaVuSans-32" d="M 1228 531 
L 3431 531 
L 3431 0 
L 469 0 
L 469 531 
Q 828 903 1448 1529 
Q 2069 2156 2228 2338 
Q 2531 2678 2651 2914 
Q 2772 3150 2772 3378 
Q 2772 3750 2511 3984 
Q 2250 4219 1831 4219 
Q 1534 4219 1204 4116 
Q 875 4013 500 3803 
L 500 4441 
Q 881 4594 1212 4672 
Q 1544 4750 1819 4750 
Q 2544 4750 2975 4387 
Q 3406 4025 3406 3419 
Q 3406 3131 3298 2873 
Q 3191 2616 2906 2266 
Q 2828 2175 2409 1742 
Q 1991 1309 1228 531 
z
" transform="scale(0.015625)"/>
        <path id="DejaVuSans-35" d="M 691 4666 
L 3169 4666 
L 3169 4134 
L 1269 4134 
L 1269 2991 
Q 1406 3038 1543 3061 
Q 1681 3084 1819 3084 
Q 2600 3084 3056 2656 
Q 3513 2228 3513 1497 
Q 3513 744 3044 326 
Q 2575 -91 1722 -91 
Q 1428 -91 1123 -41 
Q 819 9 494 109 
L 494 744 
Q 775 591 1075 516 
Q 1375 441 1709 441 
Q 2250 441 2565 725 
Q 2881 1009 2881 1497 
Q 2881 1984 2565 2268 
Q 2250 2553 1709 2553 
Q 1456 2553 1204 2497 
Q 953 2441 691 2322 
L 691 4666 
z
" transform="scale(0.015625)"/>
       </defs>
       <use xlink:href="#DejaVuSans-32"/>
       <use xlink:href="#DejaVuSans-35" x="63.623047"/>
       <use xlink:href="#DejaVuSans-30" x="127.246094"/>
       <use xlink:href="#DejaVuSans-30" x="190.869141"/>
      </g>
     </g>
    </g>
    <g id="ytick_3">
     <g id="line2d_6">
      <path d="M 81 245.212114 
L 583.2 245.212114 
" clip-path="url(#p327fda8cf0)" style="fill: none; stroke: #ffffff; stroke-linecap: round"/>
     </g>
     <g id="text_6">
      <!-- 5000 -->
      <g style="fill: #262626" transform="translate(43.505 249.391255) scale(0.11 -0.11)">
       <use xlink:href="#DejaVuSans-35"/>
       <use xlink:href="#DejaVuSans-30" x="63.623047"/>
       <use xlink:href="#DejaVuSans-30" x="127.246094"/>
       <use xlink:href="#DejaVuSans-30" x="190.869141"/>
      </g>
     </g>
    </g>
    <g id="ytick_4">
     <g id="line2d_7">
      <path d="M 81 210.318171 
L 583.2 210.318171 
" clip-path="url(#p327fda8cf0)" style="fill: none; stroke: #ffffff; stroke-linecap: round"/>
     </g>
     <g id="text_7">
      <!-- 7500 -->
      <g style="fill: #262626" transform="translate(43.505 214.497312) scale(0.11 -0.11)">
       <defs>
        <path id="DejaVuSans-37" d="M 525 4666 
L 3525 4666 
L 3525 4397 
L 1831 0 
L 1172 0 
L 2766 4134 
L 525 4134 
L 525 4666 
z
" transform="scale(0.015625)"/>
       </defs>
       <use xlink:href="#DejaVuSans-37"/>
       <use xlink:href="#DejaVuSans-35" x="63.623047"/>
       <use xlink:href="#DejaVuSans-30" x="127.246094"/>
       <use xlink:href="#DejaVuSans-30" x="190.869141"/>
      </g>
     </g>
    </g>
    <g id="ytick_5">
     <g id="line2d_8">
      <path d="M 81 175.424229 
L 583.2 175.424229 
" clip-path="url(#p327fda8cf0)" style="fill: none; stroke: #ffffff; stroke-linecap: round"/>
     </g>
     <g id="text_8">
      <!-- 10000 -->
      <g style="fill: #262626" transform="translate(36.50625 179.603369) scale(0.11 -0.11)">
       <defs>
        <path id="DejaVuSans-31" d="M 794 531 
L 1825 531 
L 1825 4091 
L 703 3866 
L 703 4441 
L 1819 4666 
L 2450 4666 
L 2450 531 
L 3481 531 
L 3481 0 
L 794 0 
L 794 531 
z
" transform="scale(0.015625)"/>
       </defs>
       <use xlink:href="#DejaVuSans-31"/>
       <use xlink:href="#DejaVuSans-30" x="63.623047"/>
       <use xlink:href="#DejaVuSans-30" x="127.246094"/>
       <use xlink:href="#DejaVuSans-30" x="190.869141"/>
       <use xlink:href="#DejaVuSans-30" x="254.492188"/>
      </g>
     </g>
    </g>
    <g id="ytick_6">
     <g id="line2d_9">
      <path d="M 81 140.530286 
L 583.2 140.530286 
" clip-path="url(#p327fda8cf0)" style="fill: none; stroke: #ffffff; stroke-linecap: round"/>
     </g>
     <g id="text_9">
      <!-- 12500 -->
      <g style="fill: #262626" transform="translate(36.50625 144.709426) scale(0.11 -0.11)">
       <use xlink:href="#DejaVuSans-31"/>
       <use xlink:href="#DejaVuSans-32" x="63.623047"/>
       <use xlink:href="#DejaVuSans-35" x="127.246094"/>
       <use xlink:href="#DejaVuSans-30" x="190.869141"/>
       <use xlink:href="#DejaVuSans-30" x="254.492188"/>
      </g>
     </g>
    </g>
    <g id="ytick_7">
     <g id="line2d_10">
      <path d="M 81 105.636343 
L 583.2 105.636343 
" clip-path="url(#p327fda8cf0)" style="fill: none; stroke: #ffffff; stroke-linecap: round"/>
     </g>
     <g id="text_10">
      <!-- 15000 -->
      <g style="fill: #262626" transform="translate(36.50625 109.815483) scale(0.11 -0.11)">
       <use xlink:href="#DejaVuSans-31"/>
       <use xlink:href="#DejaVuSans-35" x="63.623047"/>
       <use xlink:href="#DejaVuSans-30" x="127.246094"/>
       <use xlink:href="#DejaVuSans-30" x="190.869141"/>
       <use xlink:href="#DejaVuSans-30" x="254.492188"/>
      </g>
     </g>
    </g>
    <g id="ytick_8">
     <g id="line2d_11">
      <path d="M 81 70.7424 
L 583.2 70.7424 
" clip-path="url(#p327fda8cf0)" style="fill: none; stroke: #ffffff; stroke-linecap: round"/>
     </g>
     <g id="text_11">
      <!-- 17500 -->
      <g style="fill: #262626" transform="translate(36.50625 74.921541) scale(0.11 -0.11)">
       <use xlink:href="#DejaVuSans-31"/>
       <use xlink:href="#DejaVuSans-37" x="63.623047"/>
       <use xlink:href="#DejaVuSans-35" x="127.246094"/>
       <use xlink:href="#DejaVuSans-30" x="190.869141"/>
       <use xlink:href="#DejaVuSans-30" x="254.492188"/>
      </g>
     </g>
    </g>
    <g id="text_12">
     <!-- Throughput -->
     <g style="fill: #262626" transform="translate(16.57325 213.947812) rotate(-90) scale(0.12 -0.12)">
      <defs>
       <path id="DejaVuSans-68" d="M 3513 2113 
L 3513 0 
L 2938 0 
L 2938 2094 
Q 2938 2591 2744 2837 
Q 2550 3084 2163 3084 
Q 1697 3084 1428 2787 
Q 1159 2491 1159 1978 
L 1159 0 
L 581 0 
L 581 4863 
L 1159 4863 
L 1159 2956 
Q 1366 3272 1645 3428 
Q 1925 3584 2291 3584 
Q 2894 3584 3203 3211 
Q 3513 2838 3513 2113 
z
" transform="scale(0.015625)"/>
       <path id="DejaVuSans-75" d="M 544 1381 
L 544 3500 
L 1119 3500 
L 1119 1403 
Q 1119 906 1312 657 
Q 1506 409 1894 409 
Q 2359 409 2629 706 
Q 2900 1003 2900 1516 
L 2900 3500 
L 3475 3500 
L 3475 0 
L 2900 0 
L 2900 538 
Q 2691 219 2414 64 
Q 2138 -91 1772 -91 
Q 1169 -91 856 284 
Q 544 659 544 1381 
z
M 1991 3584 
L 1991 3584 
z
" transform="scale(0.015625)"/>
       <path id="DejaVuSans-67" d="M 2906 1791 
Q 2906 2416 2648 2759 
Q 2391 3103 1925 3103 
Q 1463 3103 1205 2759 
Q 947 2416 947 1791 
Q 947 1169 1205 825 
Q 1463 481 1925 481 
Q 2391 481 2648 825 
Q 2906 1169 2906 1791 
z
M 3481 434 
Q 3481 -459 3084 -895 
Q 2688 -1331 1869 -1331 
Q 1566 -1331 1297 -1286 
Q 1028 -1241 775 -1147 
L 775 -588 
Q 1028 -725 1275 -790 
Q 1522 -856 1778 -856 
Q 2344 -856 2625 -561 
Q 2906 -266 2906 331 
L 2906 616 
Q 2728 306 2450 153 
Q 2172 0 1784 0 
Q 1141 0 747 490 
Q 353 981 353 1791 
Q 353 2603 747 3093 
Q 1141 3584 1784 3584 
Q 2172 3584 2450 3431 
Q 2728 3278 2906 2969 
L 2906 3500 
L 3481 3500 
L 3481 434 
z
" transform="scale(0.015625)"/>
       <path id="DejaVuSans-70" d="M 1159 525 
L 1159 -1331 
L 581 -1331 
L 581 3500 
L 1159 3500 
L 1159 2969 
Q 1341 3281 1617 3432 
Q 1894 3584 2278 3584 
Q 2916 3584 3314 3078 
Q 3713 2572 3713 1747 
Q 3713 922 3314 415 
Q 2916 -91 2278 -91 
Q 1894 -91 1617 61 
Q 1341 213 1159 525 
z
M 3116 1747 
Q 3116 2381 2855 2742 
Q 2594 3103 2138 3103 
Q 1681 3103 1420 2742 
Q 1159 2381 1159 1747 
Q 1159 1113 1420 752 
Q 1681 391 2138 391 
Q 2594 391 2855 752 
Q 3116 1113 3116 1747 
z
" transform="scale(0.015625)"/>
      </defs>
      <use xlink:href="#DejaVuSans-54"/>
      <use xlink:href="#DejaVuSans-68" x="61.083984"/>
      <use xlink:href="#DejaVuSans-72" x="124.462891"/>
      <use xlink:href="#DejaVuSans-6f" x="163.326172"/>
      <use xlink:href="#DejaVuSans-75" x="224.507812"/>
      <use xlink:href="#DejaVuSans-67" x="287.886719"/>
      <use xlink:href="#DejaVuSans-68" x="351.363281"/>
      <use xlink:href="#DejaVuSans-70" x="414.742188"/>
      <use xlink:href="#DejaVuSans-75" x="478.21875"/>
      <use xlink:href="#DejaVuSans-74" x="541.597656"/>
     </g>
     <!-- (connections/s) -->
     <g style="fill: #262626" transform="translate(30.010625 225.113437) rotate(-90) scale(0.12 -0.12)">
      <defs>
       <path id="DejaVuSans-28" d="M 1984 4856 
Q 1566 4138 1362 3434 
Q 1159 2731 1159 2009 
Q 1159 1288 1364 580 
Q 1569 -128 1984 -844 
L 1484 -844 
Q 1016 -109 783 600 
Q 550 1309 550 2009 
Q 550 2706 781 3412 
Q 1013 4119 1484 4856 
L 1984 4856 
z
" transform="scale(0.015625)"/>
       <path id="DejaVuSans-2f" d="M 1625 4666 
L 2156 4666 
L 531 -594 
L 0 -594 
L 1625 4666 
z
" transform="scale(0.015625)"/>
       <path id="DejaVuSans-29" d="M 513 4856 
L 1013 4856 
Q 1481 4119 1714 3412 
Q 1947 2706 1947 2009 
Q 1947 1309 1714 600 
Q 1481 -109 1013 -844 
L 513 -844 
Q 928 -128 1133 580 
Q 1338 1288 1338 2009 
Q 1338 2731 1133 3434 
Q 928 4138 513 4856 
z
" transform="scale(0.015625)"/>
      </defs>
      <use xlink:href="#DejaVuSans-28"/>
      <use xlink:href="#DejaVuSans-63" x="39.013672"/>
      <use xlink:href="#DejaVuSans-6f" x="93.994141"/>
      <use xlink:href="#DejaVuSans-6e" x="155.175781"/>
      <use xlink:href="#DejaVuSans-6e" x="218.554688"/>
      <use xlink:href="#DejaVuSans-65" x="281.933594"/>
      <use xlink:href="#DejaVuSans-63" x="343.457031"/>
      <use xlink:href="#DejaVuSans-74" x="398.4375"/>
      <use xlink:href="#DejaVuSans-69" x="437.646484"/>
      <use xlink:href="#DejaVuSans-6f" x="465.429688"/>
      <use xlink:href="#DejaVuSans-6e" x="526.611328"/>
      <use xlink:href="#DejaVuSans-73" x="589.990234"/>
      <use xlink:href="#DejaVuSans-2f" x="642.089844"/>
      <use xlink:href="#DejaVuSans-73" x="675.78125"/>
      <use xlink:href="#DejaVuSans-29" x="727.880859"/>
     </g>
    </g>
   </g>
   <g id="patch_3">
    <path d="M 122.85 315 
L 164.7 315 
L 164.7 270.465438 
L 122.85 270.465438 
z
" clip-path="url(#p327fda8cf0)" style="fill: #4c72b0; stroke: #ffffff; stroke-linejoin: miter"/>
   </g>
   <g id="patch_4">
    <path d="M 290.25 315 
L 332.1 315 
L 332.1 307.941307 
L 290.25 307.941307 
z
" clip-path="url(#p327fda8cf0)" style="fill: #4c72b0; stroke: #ffffff; stroke-linejoin: miter"/>
   </g>
   <g id="patch_5">
    <path d="M 457.65 315 
L 499.5 315 
L 499.5 202.917954 
L 457.65 202.917954 
z
" clip-path="url(#p327fda8cf0)" style="fill: #4c72b0; stroke: #ffffff; stroke-linejoin: miter"/>
   </g>
   <g id="patch_6">
    <path d="M 164.7 315 
L 206.55 315 
L 206.55 177.106529 
L 164.7 177.106529 
z
" clip-path="url(#p327fda8cf0)" style="fill: #dd8452; stroke: #ffffff; stroke-linejoin: miter"/>
   </g>
   <g id="patch_7">
    <path d="M 332.1 315 
L 373.95 315 
L 373.95 216.206277 
L 332.1 216.206277 
z
" clip-path="url(#p327fda8cf0)" style="fill: #dd8452; stroke: #ffffff; stroke-linejoin: miter"/>
   </g>
   <g id="patch_8">
    <path d="M 499.5 315 
L 541.35 315 
L 541.35 56.142857 
L 499.5 56.142857 
z
" clip-path="url(#p327fda8cf0)" style="fill: #dd8452; stroke: #ffffff; stroke-linejoin: miter"/>
   </g>
   <g id="patch_9">
    <path d="M 81 315 
L 81 43.2 
" style="fill: none; stroke: #ffffff; stroke-width: 1.25; stroke-linejoin: miter; stroke-linecap: square"/>
   </g>
   <g id="patch_10">
    <path d="M 583.2 315 
L 583.2 43.2 
" style="fill: none; stroke: #ffffff; stroke-width: 1.25; stroke-linejoin: miter; stroke-linecap: square"/>
   </g>
   <g id="patch_11">
    <path d="M 81 315 
L 583.2 315 
" style="fill: none; stroke: #ffffff; stroke-width: 1.25; stroke-linejoin: miter; stroke-linecap: square"/>
   </g>
   <g id="patch_12">
    <path d="M 81 43.2 
L 583.2 43.2 
" style="fill: none; stroke: #ffffff; stroke-width: 1.25; stroke-linejoin: miter; stroke-linecap: square"/>
   </g>
   <g id="legend_1">
    <g id="patch_13">
     <path d="M 88.7 84.291875 
L 213.1375 84.291875 
Q 215.3375 84.291875 215.3375 82.091875 
L 215.3375 50.9 
Q 215.3375 48.7 213.1375 48.7 
L 88.7 48.7 
Q 86.5 48.7 86.5 50.9 
L 86.5 82.091875 
Q 86.5 84.291875 88.7 84.291875 
z
" style="fill: #eaeaf2; opacity: 0.8; stroke: #cccccc; stroke-linejoin: miter"/>
    </g>
    <g id="patch_14">
     <path d="M 90.9 61.458281 
L 112.9 61.458281 
L 112.9 53.758281 
L 90.9 53.758281 
z
" style="fill: #4c72b0; stroke: #ffffff; stroke-linejoin: miter"/>
    </g>
    <g id="text_13">
     <!-- Raw connection -->
     <g style="fill: #262626" transform="translate(121.7 61.458281) scale(0.11 -0.11)">
      <defs>
       <path id="DejaVuSans-52" d="M 2841 2188 
Q 3044 2119 3236 1894 
Q 3428 1669 3622 1275 
L 4263 0 
L 3584 0 
L 2988 1197 
Q 2756 1666 2539 1819 
Q 2322 1972 1947 1972 
L 1259 1972 
L 1259 0 
L 628 0 
L 628 4666 
L 2053 4666 
Q 2853 4666 3247 4331 
Q 3641 3997 3641 3322 
Q 3641 2881 3436 2590 
Q 3231 2300 2841 2188 
z
M 1259 4147 
L 1259 2491 
L 2053 2491 
Q 2509 2491 2742 2702 
Q 2975 2913 2975 3322 
Q 2975 3731 2742 3939 
Q 2509 4147 2053 4147 
L 1259 4147 
z
" transform="scale(0.015625)"/>
       <path id="DejaVuSans-77" d="M 269 3500 
L 844 3500 
L 1563 769 
L 2278 3500 
L 2956 3500 
L 3675 769 
L 4391 3500 
L 4966 3500 
L 4050 0 
L 3372 0 
L 2619 2869 
L 1863 0 
L 1184 0 
L 269 3500 
z
" transform="scale(0.015625)"/>
      </defs>
      <use xlink:href="#DejaVuSans-52"/>
      <use xlink:href="#DejaVuSans-61" x="67.232422"/>
      <use xlink:href="#DejaVuSans-77" x="128.511719"/>
      <use xlink:href="#DejaVuSans-20" x="210.298828"/>
      <use xlink:href="#DejaVuSans-63" x="242.085938"/>
      <use xlink:href="#DejaVuSans-6f" x="297.066406"/>
      <use xlink:href="#DejaVuSans-6e" x="358.248047"/>
      <use xlink:href="#DejaVuSans-6e" x="421.626953"/>
      <use xlink:href="#DejaVuSans-65" x="485.005859"/>
      <use xlink:href="#DejaVuSans-63" x="546.529297"/>
      <use xlink:href="#DejaVuSans-74" x="601.509766"/>
      <use xlink:href="#DejaVuSans-69" x="640.71875"/>
      <use xlink:href="#DejaVuSans-6f" x="668.501953"/>
      <use xlink:href="#DejaVuSans-6e" x="729.683594"/>
     </g>
    </g>
    <g id="patch_15">
     <path d="M 90.9 77.604219 
L 112.9 77.604219 
L 112.9 69.904219 
L 90.9 69.904219 
z
" style="fill: #dd8452; stroke: #ffffff; stroke-linejoin: miter"/>
    </g>
    <g id="text_14">
     <!-- Connection pool -->
     <g style="fill: #262626" transform="translate(121.7 77.604219) scale(0.11 -0.11)">
      <use xlink:href="#DejaVuSans-43"/>
      <use xlink:href="#DejaVuSans-6f" x="69.824219"/>
      <use xlink:href="#DejaVuSans-6e" x="131.005859"/>
      <use xlink:href="#DejaVuSans-6e" x="194.384766"/>
      <use xlink:href="#DejaVuSans-65" x="257.763672"/>
      <use xlink:href="#DejaVuSans-63" x="319.287109"/>
      <use xlink:href="#DejaVuSans-74" x="374.267578"/>
      <use xlink:href="#DejaVuSans-69" x="413.476562"/>
      <use xlink:href="#DejaVuSans-6f" x="441.259766"/>
      <use xlink:href="#DejaVuSans-6e" x="502.441406"/>
      <use xlink:href="#DejaVuSans-20" x="565.820312"/>
      <use xlink:href="#DejaVuSans-70" x="597.607422"/>
      <use xlink:href="#DejaVuSans-6f" x="661.083984"/>
      <use xlink:href="#DejaVuSans-6f" x="722.265625"/>
      <use xlink:href="#DejaVuSans-6c" x="783.447266"/>
     </g>
    </g>
   </g>
  </g>
 </g>
 <defs>
  <clipPath id="p327fda8cf0">
   <rect x="81" y="43.2" width="502.2" height="271.8"/>
  </clipPath>
 </defs>
</svg>
